PathFileType	4	(X/Y/Z)	c:/Users/goper/Files/vsCode/490R/osim_files/A01/A01_PWS_05.trc
DataRate	CameraRate	NumFrames	NumMarkers	Units                	OrigDataRate	OrigDataStartFrame	OrigNumFrames
120.00	120.00	6	36	mm	120.0	597	1193
                Frame#	Time	Mobility_markerset:LPSIS			Mobility_markerset:LASIS			Mobility_markerset:LTH1			Mobility_markerset:LTH2			Mobility_markerset:LTH3			Mobility_markerset:LTH4			Mobility_markerset:LLFE			Mobility_markerset:LMFE			Mobility_markerset:LSH1			Mobility_markerset:LSH2			Mobility_markerset:LSH3			Mobility_markerset:LSH4			Mobility_markerset:LLMAL			Mobility_markerset:LMMAL			Mobility_markerset:LCAL			Mobility_markerset:LMTP5			Mobility_markerset:LTOE			Mobility_markerset:LMTP1			Mobility_markerset:RPSIS			Mobility_markerset:RASIS			Mobility_markerset:RTH1			Mobility_markerset:RTH2			Mobility_markerset:RTH3			Mobility_markerset:RTH4			Mobility_markerset:RLFE			Mobility_markerset:RMFE			Mobility_markerset:RSH1			Mobility_markerset:RSH2			Mobility_markerset:RSH3			Mobility_markerset:RSH4			Mobility_markerset:RLMAL			Mobility_markerset:RMMAL			Mobility_markerset:RCAL			Mobility_markerset:RMTP1			Mobility_markerset:RTOE			Mobility_markerset:RMTP5		
		X1	Y1	Z1	X2	Y2	Z2	X3	Y3	Z3	X4	Y4	Z4	X5	Y5	Z5	X6	Y6	Z6	X7	Y7	Z7	X8	Y8	Z8	X9	Y9	Z9	X10	Y10	Z10	X11	Y11	Z11	X12	Y12	Z12	X13	Y13	Z13	X14	Y14	Z14	X15	Y15	Z15	X16	Y16	Z16	X17	Y17	Z17	X18	Y18	Z18	X19	Y19	Z19	X20	Y20	Z20	X21	Y21	Z21	X22	Y22	Z22	X23	Y23	Z23	X24	Y24	Z24	X25	Y25	Z25	X26	Y26	Z26	X27	Y27	Z27	X28	Y28	Z28	X29	Y29	Z29	X30	Y30	Z30	X31	Y31	Z31	X32	Y32	Z32	X33	Y33	Z33	X34	Y34	Z34	X35	Y35	Z35	X36	Y36	Z36

597	4.96667	-435.52505	1053.41321	365.94830	-680.81122	1031.78467	434.80811	-587.06049	693.22119	492.91937	-595.39990	650.30463	483.31717	-643.50208	705.29773	491.95599	-645.70630	660.87897	479.34427	-635.02936	539.29462	442.09872	-640.85718	549.87006	303.62741	-580.57898	380.07623	427.14935	-575.48779	332.83231	427.52802	-641.18579	368.92908	420.95230	-628.21222	324.52673	420.69577	-562.93549	89.74882	395.71359	-548.69897	90.64095	316.17627	-480.21875	62.93984	360.27515	-704.29700	37.51748	403.82535	-727.48584	59.83094	336.30771	-708.96741	48.70991	303.48322	-428.66110	1042.87537	263.42490	-654.19995	998.38635	179.23372	-624.53534	664.36804	108.77763	-648.10217	627.76971	112.29979	-680.66125	691.50598	102.85632	-694.92450	650.95239	106.23494	-733.66895	508.72256	146.69759	-759.26917	526.37830	268.48364	-537.33539	416.24527	163.72699	-508.00284	382.40173	166.59926	-578.50848	371.90384	153.94635	-544.36865	343.43570	158.20537	-405.48215	238.91766	205.29846	-443.76144	234.41663	285.54352	-355.21811	256.67447	260.24597	-484.18646	93.73975	285.80823	-515.91815	81.85390	238.11226	-451.01511	98.79831	177.45227
598	4.97500	-443.78503	1053.96814	365.40292	-687.04681	1032.49377	435.63821	-588.93622	696.46564	493.17877	-600.12885	650.87805	482.93796	-648.94073	705.01947	491.67505	-650.54120	660.85126	479.03726	-638.83282	539.24353	441.91455	-646.14838	549.91980	302.97473	-583.20154	380.45526	426.95535	-577.58514	333.27359	427.36453	-643.71619	368.96869	420.87772	-630.35150	324.57401	420.52478	-563.25043	90.07301	395.71695	-549.00793	91.07531	315.95059	-480.48145	63.67492	360.20178	-704.43329	37.48605	403.83585	-727.65497	59.63123	336.28000	-709.13531	48.67237	303.41495	-437.03653	1043.82800	262.82932	-664.43640	1001.52502	180.02165	-638.53729	666.73578	108.75040	-662.41479	630.48822	112.33917	-694.29535	694.76141	103.37767	-709.11078	654.40393	106.84442	-749.32910	512.60583	148.04059	-774.89105	530.95343	269.74957	-556.14423	413.32208	164.02267	-528.35291	378.26102	166.70192	-599.13525	370.64252	154.23785	-566.11145	340.84192	158.41127	-431.21069	230.05447	204.47060	-469.48532	227.75511	285.05505	-379.50195	245.07184	259.33371	-517.63586	90.09362	285.55328	-550.44360	80.13196	237.77721	-484.57111	93.06742	176.86609
599	4.98333	-451.76550	1054.39038	364.70444	-694.48199	1033.48083	436.48044	-594.21185	696.79456	492.78192	-604.83380	651.21930	482.46521	-654.18280	705.02380	491.43045	-655.41943	660.83148	478.68405	-642.82611	539.31158	441.75653	-650.20660	549.73450	302.82709	-585.82166	380.78873	426.84091	-580.00842	333.62375	427.19852	-646.21503	368.76965	420.70184	-632.44116	324.60965	420.40591	-563.57349	90.45592	395.73517	-549.28503	91.36387	315.83441	-480.74301	64.42245	360.09436	-704.55334	37.40530	403.86520	-728.42542	59.65821	335.87827	-709.35858	48.64086	303.30606	-445.41495	1044.49329	262.13144	-673.11383	1003.98517	181.16739	-652.17224	669.06769	108.51230	-676.33612	633.16467	112.22600	-707.53571	697.90405	103.95567	-722.86542	657.81128	107.44081	-764.67548	516.30872	149.56560	-789.49121	535.45758	270.71698	-574.76379	409.78516	164.18547	-548.55548	373.76221	166.41249	-619.65594	368.95419	154.49161	-588.05109	337.85837	158.54834	-457.48172	220.73618	203.55267	-495.42682	220.60941	284.32010	-404.56619	232.75516	258.23669	-551.67578	86.33875	284.87955	-585.10529	78.35348	237.23433	-518.69562	87.14799	176.21394
600	4.99167	-459.83191	1054.55762	363.90067	-701.91699	1034.35742	437.27957	-600.04077	696.89594	491.91321	-609.72003	651.49414	482.06985	-659.48651	704.83020	491.19226	-660.36578	660.70703	478.43283	-646.71002	539.06360	441.53461	-655.07654	549.39459	301.76193	-588.61328	381.09799	426.65240	-582.37860	333.97672	427.08112	-648.87946	368.52414	420.62857	-634.76477	324.49475	420.36588	-564.20264	91.11443	395.88492	-549.66382	91.78750	315.56564	-481.18033	65.07098	360.09644	-704.68280	37.29935	403.92126	-727.85815	58.98555	336.38364	-709.24017	48.44386	303.48828	-453.71057	1044.96057	261.27350	-682.08673	1006.21661	182.30331	-665.48492	671.27240	108.23312	-690.84204	635.62561	112.69617	-720.52838	700.89752	104.53696	-736.47876	661.01855	108.12845	-779.55481	519.76343	151.17720	-803.33752	539.64758	271.91653	-593.48749	405.61438	164.10269	-569.02484	368.32568	166.08727	-640.37769	367.02039	154.73766	-610.01508	334.21454	158.64815	-484.44025	210.87613	202.29663	-521.97900	212.83929	283.44855	-430.54593	219.76358	257.03391	-586.18756	82.60482	283.89740	-619.97552	76.67781	236.22530	-553.34845	81.21350	175.28314
601	5.00000	-467.69708	1054.57727	362.90170	-709.24982	1034.87634	438.15439	-605.20935	697.27545	491.51630	-614.62762	651.74426	481.66870	-664.87720	704.59003	490.91470	-665.37140	660.45239	478.12122	-650.93835	538.85596	441.19125	-659.41461	549.14069	301.51968	-591.50653	381.43939	426.39798	-584.84985	334.32440	426.86880	-651.72119	368.41315	420.40619	-637.12073	324.46664	420.18451	-564.63092	91.47689	395.82846	-550.27563	92.14974	315.37625	-481.40778	65.78558	360.08884	-704.80963	37.19162	403.95303	-728.10651	58.74026	336.35315	-709.39490	48.30172	303.44855	-461.92102	1045.29297	260.22501	-690.72253	1008.01819	183.35181	-678.55652	673.32666	107.98077	-704.37506	638.00098	112.71757	-733.19989	703.66577	105.16001	-749.68726	663.93134	108.94663	-793.73529	522.98322	152.84103	-816.31757	543.47321	273.12375	-612.25049	400.84067	163.88719	-589.50439	362.47604	165.66090	-660.93115	364.40833	154.76547	-631.89941	329.96701	158.75636	-512.09399	200.30380	201.09633	-548.61194	204.77620	282.59927	-457.29694	206.39053	255.64035	-620.90051	78.70898	282.62576	-655.16364	75.03519	235.03360	-588.38977	75.52948	173.90263
602	5.00833	-475.52155	1054.49353	361.79269	-716.58673	1035.12537	439.01102	-610.51959	697.37195	491.07977	-619.50470	651.77521	481.19986	-670.05261	704.18005	490.78903	-670.37317	660.13885	477.83163	-655.33618	538.64075	440.86682	-663.49677	548.67633	302.12460	-594.42694	381.70850	426.19775	-587.36688	334.68350	426.65002	-654.47205	368.11078	420.28040	-638.58899	325.22601	420.52866	-565.10168	91.84440	395.80978	-550.75104	92.48734	315.14392	-481.96341	66.43380	359.96201	-704.85437	37.06203	403.96170	-728.31378	58.49773	336.32324	-709.55664	48.13979	303.34113	-470.27313	1045.38464	259.00702	-699.64746	1009.69006	184.23085	-691.29413	675.15222	107.70208	-717.63391	640.03192	112.49660	-745.59290	706.21259	105.79085	-762.41693	666.67413	109.75936	-807.25806	525.98431	154.47646	-828.60327	546.83588	274.42169	-630.88916	394.93665	162.99252	-610.06934	355.87924	165.19682	-681.93439	361.50821	155.72220	-654.50482	325.56580	158.23070	-540.26611	190.05247	199.76973	-576.26630	196.07945	281.43176	-484.78894	192.84319	254.36914	-655.53259	74.71025	280.41928	-691.09943	73.74738	233.53589	-623.83148	70.16328	172.20099
